<svg width="21" height="22" viewBox="0 0 21 22" fill="none" xmlns="http://www.w3.org/2000/svg">
<path d="M10.5 19.8916C5.43375 19.8916 1.3125 15.7704 1.3125 10.7041C1.3125 5.63785 5.43375 1.5166 10.5 1.5166C15.5662 1.5166 19.6875 5.63785 19.6875 10.7041C19.6875 15.7704 15.5662 19.8916 10.5 19.8916ZM10.5 2.8291C6.15562 2.8291 2.625 6.35973 2.625 10.7041C2.625 15.0485 6.15562 18.5791 10.5 18.5791C14.8444 18.5791 18.375 15.0485 18.375 10.7041C18.375 6.35973 14.8444 2.8291 10.5 2.8291Z" fill="#CCF575"/>
<path d="M10.5 15.2979C10.1325 15.2979 9.84375 15.0091 9.84375 14.6416V6.7666C9.84375 6.3991 10.1325 6.11035 10.5 6.11035C10.8675 6.11035 11.1562 6.3991 11.1562 6.7666V14.6416C11.1562 15.0091 10.8675 15.2979 10.5 15.2979Z" fill="#CCF575"/>
<path d="M14.4375 11.3604H6.5625C6.195 11.3604 5.90625 11.0716 5.90625 10.7041C5.90625 10.3366 6.195 10.0479 6.5625 10.0479H14.4375C14.805 10.0479 15.0938 10.3366 15.0938 10.7041C15.0938 11.0716 14.805 11.3604 14.4375 11.3604Z" fill="#CCF575"/>
</svg>
